<?xml version="1.0" standalone="no"?>
<!DOCTYPE svg PUBLIC "-//W3C//DTD SVG 20010904//EN"
 "http://www.w3.org/TR/2001/REC-SVG-20010904/DTD/svg10.dtd">
<svg version="1.0" xmlns="http://www.w3.org/2000/svg"
 width="1093.000000pt" height="1093.000000pt" viewBox="0 0 1093.000000 1093.000000"
 preserveAspectRatio="xMidYMid meet">
<metadata>
Created by potrace 1.14, written by Peter Selinger 2001-2017
</metadata>
<g transform="translate(0.000000,1093.000000) scale(0.100000,-0.100000)"
fill="#000000" stroke="none">
<path d="M2519 10918 c0 -7 -2 -22 -4 -33 -2 -11 -7 -47 -10 -80 -18 -180 -76
-378 -138 -467 -10 -16 -15 -28 -10 -28 4 0 4 -4 -2 -8 -5 -4 -28 -29 -50 -57
-53 -67 -88 -99 -165 -149 -74 -48 -171 -89 -265 -111 -27 -7 -136 -25 -185
-31 -49 -6 -255 -6 -430 -1 l-64 2 -1 -3222 c0 -1828 4 -3223 9 -3223 5 0 3
-6 -3 -13 -6 -8 -9 -16 -6 -18 2 -3 7 -63 10 -133 3 -71 7 -142 10 -160 2 -17
11 -85 20 -151 16 -122 19 -133 55 -290 19 -79 73 -254 111 -355 25 -65 146
-297 189 -361 233 -345 533 -601 947 -808 159 -79 356 -163 493 -210 52 -18
104 -37 115 -42 20 -8 223 -78 228 -78 1 0 9 -2 17 -5 15 -6 335 -103 515
-157 234 -70 631 -204 770 -260 206 -82 431 -196 577 -291 68 -44 130 -87 138
-94 32 -30 94 -74 100 -72 6 3 37 28 134 109 61 52 253 171 377 234 262 134
538 231 1089 385 102 29 239 68 305 87 66 19 125 36 130 37 124 33 407 128
565 191 238 94 587 283 664 360 9 9 16 13 16 10 0 -21 262 222 337 312 21 25
48 57 61 72 26 29 155 218 165 241 4 8 17 31 28 50 50 82 169 345 169 373 0 7
5 18 12 25 7 7 9 12 6 12 -4 0 0 17 8 37 9 20 18 44 20 52 2 9 17 68 34 131
45 165 90 404 105 555 2 22 8 72 12 110 12 108 10 6570 -2 6568 -142 -23 -488
-23 -605 1 -341 70 -528 248 -615 582 -22 83 -55 305 -55 366 0 17 -144 18
-2965 18 -2365 0 -2965 -3 -2966 -12z"/>
</g>
</svg>
